<svg preserveAspectRatio="none" overflow="visible" style="display: block;" width="5.79298" height="4.65746" viewBox="0 0 5.79298 4.65746" fill="none" xmlns="http://www.w3.org/2000/svg">
<path id="mail" d="M0.645825 4.65746C0.467076 4.65746 0.314751 4.59451 0.188851 4.46861C0.0629502 4.34271 0 4.19039 0 4.01164V0.645825C0 0.467076 0.0629502 0.314751 0.188851 0.18885C0.314751 0.0629501 0.467076 0 0.645825 0H5.14716C5.3259 0 5.47823 0.0629501 5.60413 0.18885C5.73003 0.314751 5.79298 0.467076 5.79298 0.645825V4.01164C5.79298 4.19039 5.73003 4.34271 5.60413 4.46861C5.47823 4.59451 5.3259 4.65746 5.14716 4.65746H0.645825ZM2.89649 2.62744C2.92469 2.62744 2.95348 2.62333 2.98286 2.61509C3.01229 2.60686 3.04053 2.59451 3.0676 2.57805L5.02345 1.34395C5.06239 1.3203 5.09274 1.28902 5.11451 1.25013C5.13627 1.21124 5.14716 1.16826 5.14716 1.12118C5.14716 1.01974 5.10327 0.942834 5.01551 0.890458C4.92769 0.838035 4.83725 0.840685 4.74419 0.898407L2.89649 2.06522L1.04879 0.898407C0.956862 0.84182 0.866707 0.839785 0.778326 0.892303C0.689992 0.944821 0.645825 1.02111 0.645825 1.12118C0.645825 1.17299 0.656707 1.21805 0.678471 1.25638C0.700235 1.2947 0.730587 1.32389 0.769525 1.34395L2.72538 2.57805C2.75245 2.59451 2.78069 2.60686 2.81012 2.61509C2.8395 2.62333 2.86829 2.62744 2.89649 2.62744Z" fill="black"/>
</svg>
