<svg preserveAspectRatio="none" overflow="visible" style="display: block;" width="12.8874" height="12.8874" viewBox="0 0 12.8874 12.8874" fill="none" xmlns="http://www.w3.org/2000/svg">
<g id="Group">
<g id="Vector">
</g>
<path id="Vector_2" fill-rule="evenodd" clip-rule="evenodd" d="M8.14164 6.11697C8.2267 6.20206 8.27449 6.31744 8.27449 6.43776C8.27449 6.55807 8.2267 6.67346 8.14164 6.75854L5.57489 9.3253C5.53303 9.36864 5.48296 9.4032 5.42761 9.42698C5.37225 9.45076 5.31271 9.46328 5.25246 9.4638C5.19222 9.46433 5.13247 9.45285 5.07671 9.43003C5.02095 9.40722 4.97029 9.37353 4.92769 9.33092C4.88508 9.28832 4.85139 9.23766 4.82858 9.1819C4.80576 9.12614 4.79428 9.06639 4.79481 9.00615C4.79533 8.9459 4.80785 8.88636 4.83163 8.831C4.85541 8.77565 4.88997 8.72558 4.93331 8.68373L7.17928 6.43776L4.93331 4.19179C4.85066 4.10621 4.80493 3.9916 4.80596 3.87263C4.80699 3.75367 4.85471 3.63986 4.93884 3.55574C5.02296 3.47161 5.13676 3.42389 5.25573 3.42286C5.3747 3.42183 5.48931 3.46756 5.57489 3.55021L8.14164 6.11697Z" fill="black"/>
</g>
</svg>
