<svg preserveAspectRatio="none" overflow="visible" style="display: block;" width="78.1969" height="49.0751" viewBox="0 0 78.1969 49.0751" fill="none" xmlns="http://www.w3.org/2000/svg">
<g id="Graph">
<g id="Graph_2">
<mask id="mask0_0_228" style="mask-type:alpha" maskUnits="userSpaceOnUse" x="-4" y="-11" width="85" height="71">
<g id="Lines">
<line id="Line 1" x1="-2.88403" y1="-10.3052" x2="-2.88403" y2="59.6655" stroke="black" stroke-width="0.283665"/>
<path id="Line 2" d="M-2.26926 -10.3052L-2.26926 59.6655" stroke="black" stroke-width="0.283665"/>
<path id="Line 3" d="M-1.51282 -10.3052L-1.51282 59.6655" stroke="black" stroke-width="0.283665"/>
<path id="Line 4" d="M-0.756383 -10.3052L-0.756383 59.6655" stroke="black" stroke-width="0.283665"/>
<path id="Line 5" d="M5.6745e-05 -10.3052L5.6745e-05 59.6655" stroke="black" stroke-width="0.283665"/>
<path id="Line 6" d="M0.756497 -10.3052L0.756497 59.6655" stroke="black" stroke-width="0.283665"/>
<path id="Line 7" d="M1.51294 -10.3052L1.51294 59.6655" stroke="black" stroke-width="0.283665"/>
<path id="Line 8" d="M2.26938 -10.3052L2.26938 59.6655" stroke="black" stroke-width="0.283665"/>
<path id="Line 9" d="M3.02582 -10.3052L3.02582 59.6655" stroke="black" stroke-width="0.283665"/>
<path id="Line 10" d="M3.78226 -10.3052L3.78226 59.6655" stroke="black" stroke-width="0.283665"/>
<path id="Line 11" d="M4.5387 -10.3052L4.5387 59.6655" stroke="black" stroke-width="0.283665"/>
<path id="Line 12" d="M5.29514 -10.3052L5.29514 59.6655" stroke="black" stroke-width="0.283665"/>
<path id="Line 13" d="M6.05158 -10.3052L6.05158 59.6655" stroke="black" stroke-width="0.283665"/>
<path id="Line 14" d="M6.80802 -10.3052L6.80802 59.6655" stroke="black" stroke-width="0.283665"/>
<path id="Line 15" d="M7.56446 -10.3052L7.56446 59.6655" stroke="black" stroke-width="0.283665"/>
<path id="Line 16" d="M8.3209 -10.3052L8.3209 59.6655" stroke="black" stroke-width="0.283665"/>
<path id="Line 17" d="M9.07734 -10.3052L9.07734 59.6655" stroke="black" stroke-width="0.283665"/>
<path id="Line 18" d="M9.83378 -10.3052L9.83378 59.6655" stroke="black" stroke-width="0.283665"/>
<path id="Line 19" d="M10.5901 -10.3052L10.5901 59.6655" stroke="black" stroke-width="0.283665"/>
<path id="Line 20" d="M11.3467 -10.3052L11.3467 59.6655" stroke="black" stroke-width="0.283665"/>
<path id="Line 21" d="M12.1031 -10.3052L12.1031 59.6655" stroke="black" stroke-width="0.283665"/>
<path id="Line 22" d="M12.8595 -10.3052L12.8595 59.6655" stroke="black" stroke-width="0.283665"/>
<path id="Line 23" d="M13.616 -10.3052L13.616 59.6655" stroke="black" stroke-width="0.283665"/>
<path id="Line 24" d="M14.3724 -10.3052L14.3724 59.6655" stroke="black" stroke-width="0.283665"/>
<path id="Line 25" d="M15.1289 -10.3052L15.1289 59.6655" stroke="black" stroke-width="0.283665"/>
<path id="Line 26" d="M15.8853 -10.3052L15.8853 59.6655" stroke="black" stroke-width="0.283665"/>
<path id="Line 27" d="M16.6417 -10.3052L16.6417 59.6655" stroke="black" stroke-width="0.283665"/>
<path id="Line 28" d="M17.3982 -10.3052L17.3982 59.6655" stroke="black" stroke-width="0.283665"/>
<path id="Line 29" d="M18.1546 -10.3052L18.1546 59.6655" stroke="black" stroke-width="0.283665"/>
<path id="Line 30" d="M18.9111 -10.3052L18.9111 59.6655" stroke="black" stroke-width="0.283665"/>
<path id="Line 31" d="M19.6675 -10.3052L19.6675 59.6655" stroke="black" stroke-width="0.283665"/>
<path id="Line 32" d="M20.4239 -10.3052L20.4239 59.6655" stroke="black" stroke-width="0.283665"/>
<path id="Line 33" d="M21.1804 -10.3052L21.1804 59.6655" stroke="black" stroke-width="0.283665"/>
<path id="Line 34" d="M21.9368 -10.3052L21.9368 59.6655" stroke="black" stroke-width="0.283665"/>
<path id="Line 54" d="M22.6933 -10.3052L22.6933 59.6655" stroke="black" stroke-width="0.283665"/>
<path id="Line 55" d="M23.4497 -10.3052L23.4497 59.6655" stroke="black" stroke-width="0.283665"/>
<path id="Line 56" d="M24.2061 -10.3052L24.2061 59.6655" stroke="black" stroke-width="0.283665"/>
<path id="Line 57" d="M24.9626 -10.3052L24.9626 59.6655" stroke="black" stroke-width="0.283665"/>
<path id="Line 58" d="M25.719 -10.3052L25.719 59.6655" stroke="black" stroke-width="0.283665"/>
<path id="Line 59" d="M26.4754 -10.3052L26.4754 59.6655" stroke="black" stroke-width="0.283665"/>
<path id="Line 60" d="M27.2319 -10.3052L27.2319 59.6655" stroke="black" stroke-width="0.283665"/>
<path id="Line 61" d="M27.9883 -10.3052L27.9883 59.6655" stroke="black" stroke-width="0.283665"/>
<path id="Line 62" d="M28.7448 -10.3052L28.7448 59.6655" stroke="black" stroke-width="0.283665"/>
<path id="Line 63" d="M29.5012 -10.3052L29.5012 59.6655" stroke="black" stroke-width="0.283665"/>
<path id="Line 64" d="M30.2576 -10.3052L30.2576 59.6655" stroke="black" stroke-width="0.283665"/>
<path id="Line 65" d="M31.0141 -10.3052L31.0141 59.6655" stroke="black" stroke-width="0.283665"/>
<path id="Line 66" d="M31.7705 -10.3052L31.7705 59.6655" stroke="black" stroke-width="0.283665"/>
<path id="Line 67" d="M32.527 -10.3052L32.527 59.6655" stroke="black" stroke-width="0.283665"/>
<path id="Line 68" d="M33.2834 -10.3052L33.2834 59.6655" stroke="black" stroke-width="0.283665"/>
<path id="Line 69" d="M34.0398 -10.3052L34.0398 59.6655" stroke="black" stroke-width="0.283665"/>
<path id="Line 70" d="M34.7963 -10.3052L34.7963 59.6655" stroke="black" stroke-width="0.283665"/>
<path id="Line 71" d="M35.5527 -10.3052L35.5527 59.6655" stroke="black" stroke-width="0.283665"/>
<path id="Line 72" d="M36.3092 -10.3052L36.3092 59.6655" stroke="black" stroke-width="0.283665"/>
<path id="Line 73" d="M37.0656 -10.3052L37.0656 59.6655" stroke="black" stroke-width="0.283665"/>
<path id="Line 74" d="M37.822 -10.3052L37.822 59.6655" stroke="black" stroke-width="0.283665"/>
<path id="Line 75" d="M38.5785 -10.3052L38.5785 59.6655" stroke="black" stroke-width="0.283665"/>
<path id="Line 76" d="M39.3349 -10.3052L39.3349 59.6655" stroke="black" stroke-width="0.283665"/>
<path id="Line 77" d="M40.0914 -10.3052L40.0914 59.6655" stroke="black" stroke-width="0.283665"/>
<path id="Line 78" d="M40.8478 -10.3052L40.8478 59.6655" stroke="black" stroke-width="0.283665"/>
<path id="Line 79" d="M41.6042 -10.3052L41.6042 59.6655" stroke="black" stroke-width="0.283665"/>
<path id="Line 80" d="M42.3607 -10.3052L42.3607 59.6655" stroke="black" stroke-width="0.283665"/>
<path id="Line 81" d="M43.1171 -10.3052L43.1171 59.6655" stroke="black" stroke-width="0.283665"/>
<path id="Line 82" d="M43.8735 -10.3052L43.8735 59.6655" stroke="black" stroke-width="0.283665"/>
<path id="Line 83" d="M44.63 -10.3052L44.63 59.6655" stroke="black" stroke-width="0.283665"/>
<path id="Line 84" d="M45.3864 -10.3052L45.3864 59.6655" stroke="black" stroke-width="0.283665"/>
<path id="Line 85" d="M46.1429 -10.3052L46.1429 59.6655" stroke="black" stroke-width="0.283665"/>
<path id="Line 86" d="M46.8993 -10.3052L46.8993 59.6655" stroke="black" stroke-width="0.283665"/>
<path id="Line 87" d="M47.6557 -10.3052L47.6557 59.6655" stroke="black" stroke-width="0.283665"/>
<path id="Line 88" d="M48.4122 -10.3052L48.4122 59.6655" stroke="black" stroke-width="0.283665"/>
<path id="Line 89" d="M49.1686 -10.3052L49.1686 59.6655" stroke="black" stroke-width="0.283665"/>
<path id="Line 90" d="M49.9251 -10.3052L49.9251 59.6655" stroke="black" stroke-width="0.283665"/>
<path id="Line 91" d="M50.6815 -10.3052L50.6815 59.6655" stroke="black" stroke-width="0.283665"/>
<path id="Line 92" d="M51.4379 -10.3052L51.4379 59.6655" stroke="black" stroke-width="0.283665"/>
<path id="Line 93" d="M52.1944 -10.3052L52.1944 59.6655" stroke="black" stroke-width="0.283665"/>
<path id="Line 94" d="M52.9508 -10.3052L52.9508 59.6655" stroke="black" stroke-width="0.283665"/>
<path id="Line 95" d="M53.7073 -10.3052L53.7073 59.6655" stroke="black" stroke-width="0.283665"/>
<path id="Line 96" d="M54.4637 -10.3052L54.4637 59.6655" stroke="black" stroke-width="0.283665"/>
<path id="Line 97" d="M55.2201 -10.3052L55.2201 59.6655" stroke="black" stroke-width="0.283665"/>
<path id="Line 98" d="M55.9766 -10.3052L55.9766 59.6655" stroke="black" stroke-width="0.283665"/>
<path id="Line 99" d="M56.733 -10.3052L56.733 59.6655" stroke="black" stroke-width="0.283665"/>
<path id="Line 100" d="M57.4895 -10.3052L57.4895 59.6655" stroke="black" stroke-width="0.283665"/>
<path id="Line 101" d="M58.2459 -10.3052L58.2459 59.6655" stroke="black" stroke-width="0.283665"/>
<path id="Line 102" d="M59.0023 -10.3052L59.0023 59.6655" stroke="black" stroke-width="0.283665"/>
<path id="Line 103" d="M59.7588 -10.3052L59.7588 59.6655" stroke="black" stroke-width="0.283665"/>
<path id="Line 104" d="M60.5152 -10.3052L60.5152 59.6655" stroke="black" stroke-width="0.283665"/>
<path id="Line 105" d="M61.2717 -10.3052L61.2717 59.6655" stroke="black" stroke-width="0.283665"/>
<path id="Line 106" d="M62.0281 -10.3052L62.0281 59.6655" stroke="black" stroke-width="0.283665"/>
<path id="Line 107" d="M62.7845 -10.3052L62.7845 59.6655" stroke="black" stroke-width="0.283665"/>
<path id="Line 108" d="M63.541 -10.3052L63.541 59.6655" stroke="black" stroke-width="0.283665"/>
<path id="Line 109" d="M64.2974 -10.3052V59.6655" stroke="black" stroke-width="0.283665"/>
<path id="Line 110" d="M65.0539 -10.3052V59.6655" stroke="black" stroke-width="0.283665"/>
<path id="Line 111" d="M65.8103 -10.3052V59.6655" stroke="black" stroke-width="0.283665"/>
<path id="Line 35" d="M66.5667 -10.3052V59.6655" stroke="black" stroke-width="0.283665"/>
<path id="Line 36" d="M67.3232 -10.3052V59.6655" stroke="black" stroke-width="0.283665"/>
<path id="Line 37" d="M68.0796 -10.3052V59.6655" stroke="black" stroke-width="0.283665"/>
<path id="Line 38" d="M68.836 -10.3052V59.6655" stroke="black" stroke-width="0.283665"/>
<path id="Line 39" d="M69.5925 -10.3052V59.6655" stroke="black" stroke-width="0.283665"/>
<path id="Line 40" d="M70.3489 -10.3052V59.6655" stroke="black" stroke-width="0.283665"/>
<path id="Line 41" d="M71.1054 -10.3052V59.6655" stroke="black" stroke-width="0.283665"/>
<path id="Line 42" d="M71.8618 -10.3052V59.6655" stroke="black" stroke-width="0.283665"/>
<path id="Line 43" d="M72.6182 -10.3052V59.6655" stroke="black" stroke-width="0.283665"/>
<path id="Line 44" d="M73.3747 -10.3052V59.6655" stroke="black" stroke-width="0.283665"/>
<path id="Line 45" d="M74.1311 -10.3052V59.6655" stroke="black" stroke-width="0.283665"/>
<path id="Line 46" d="M74.8876 -10.3052V59.6655" stroke="black" stroke-width="0.283665"/>
<path id="Line 47" d="M75.644 -10.3052V59.6655" stroke="black" stroke-width="0.283665"/>
<path id="Line 48" d="M76.4004 -10.3052V59.6655" stroke="black" stroke-width="0.283665"/>
<path id="Line 49" d="M77.1569 -10.3052V59.6655" stroke="black" stroke-width="0.283665"/>
<path id="Line 50" d="M77.9133 -10.3052V59.6655" stroke="black" stroke-width="0.283665"/>
<path id="Line 51" d="M78.6698 -10.3052V59.6655" stroke="black" stroke-width="0.283665"/>
<path id="Line 52" d="M79.4262 -10.3052V59.6655" stroke="black" stroke-width="0.283665"/>
<path id="Line 53" d="M80.1826 -10.3052V59.6655" stroke="black" stroke-width="0.283665"/>
</g>
</mask>
<g mask="url(#mask0_0_228)">
<path id="Vector 3" d="M18.9107 29.5774C14.4611 32.5439 1.13456 39.9025 1.13456 39.9025V47.5614C1.13456 48.397 1.8119 49.0743 2.64744 49.0743H76.684C77.5196 49.0743 78.1969 48.397 78.1969 47.5614V0.283921C78.1969 0.283921 61.9334 17.9657 60.5151 18.4385C59.0968 18.9113 45.7645 17.9657 43.4007 18.4385C41.0368 18.9113 38.011 26.0785 35.6471 26.2865C33.2833 26.4946 27.0426 26.2865 25.908 26.2865C24.7733 26.2865 23.3604 26.611 18.9107 29.5774Z" fill="url(#paint0_linear_0_228)"/>
<path id="Vector 4" d="M17.0586 31.0607C12.9798 33.6563 0.757721 39.9025 0.757721 39.9025V47.5614C0.757721 48.397 1.43506 49.0743 2.2706 49.0743H76.3072C77.1427 49.0743 77.8201 48.397 77.8201 47.5614V0.283921C77.8201 0.283921 61.5566 17.9657 60.1383 18.4385C58.72 18.9113 45.3877 17.9657 43.0238 18.4385C40.6599 18.9113 37.6342 26.0785 35.2703 26.2865C32.9064 26.4946 26.6658 26.2865 25.5311 26.2865C24.3965 26.2865 21.1375 28.465 17.0586 31.0607Z" fill="url(#paint1_linear_0_228)"/>
</g>
</g>
<path id="Vector 4_2" d="M0.757772 39.9022C0.757772 39.9022 13.3499 33.2852 17.4287 30.6896C21.5076 28.094 24.3965 26.2863 25.5312 26.2863C26.6658 26.2863 32.9065 26.4944 35.2704 26.2863C37.6342 26.0782 40.66 18.911 43.0239 18.4382C45.3877 17.9655 58.72 18.911 60.1383 18.4382C61.5567 17.9655 77.8201 0.283666 77.8201 0.283666" stroke="#F01E1E" stroke-width="0.56733" stroke-linecap="round"/>
<path id="Indicator" d="M52.3798 17.2088C52.9541 17.2091 53.4199 17.6746 53.4199 18.2489C53.4197 18.7247 53.0993 19.1243 52.663 19.2479V39.8075H52.0957V19.2479C51.6595 19.1243 51.34 18.7246 51.3398 18.2489C51.3398 17.6744 51.8054 17.2088 52.3798 17.2088Z" fill="white" stroke="url(#paint2_linear_0_228)" stroke-width="0.56733"/>
</g>
<defs>
<linearGradient id="paint0_linear_0_228" x1="49.925" y1="12.1033" x2="52.6535" y2="43.668" gradientUnits="userSpaceOnUse">
<stop stop-color="#F01E1E" stop-opacity="0.5"/>
<stop offset="1" stop-color="#F01E1E" stop-opacity="0"/>
</linearGradient>
<linearGradient id="paint1_linear_0_228" x1="49.5481" y1="12.1033" x2="50.0594" y2="41.4432" gradientUnits="userSpaceOnUse">
<stop stop-color="#FF664D" stop-opacity="0.2"/>
<stop offset="1" stop-color="#FF664D" stop-opacity="0"/>
</linearGradient>
<linearGradient id="paint2_linear_0_228" x1="52.3794" y1="17.492" x2="52.3794" y2="39.807" gradientUnits="userSpaceOnUse">
<stop stop-color="#F01E1E"/>
<stop offset="1" stop-color="#F01E1E" stop-opacity="0"/>
</linearGradient>
</defs>
</svg>
